<mxfile host="Electron" modified="2023-10-22T13:48:41.731Z" agent="Mozilla/5.0 (X11; Linux x86_64) AppleWebKit/537.36 (KHTML, like Gecko) draw.io/21.6.5 Chrome/114.0.5735.243 Electron/25.3.1 Safari/537.36" etag="fz1rnEAWiFvxN2h52KYu" version="21.6.5" type="device">
  <diagram name="第 1 页" id="Bj8tEn7FN9Y7yIVg3IFs">
    <mxGraphModel dx="1941" dy="879" grid="1" gridSize="10" guides="1" tooltips="1" connect="1" arrows="1" fold="1" page="1" pageScale="1" pageWidth="827" pageHeight="1169" math="0" shadow="0">
      <root>
        <mxCell id="0" />
        <mxCell id="1" parent="0" />
        <mxCell id="RcNMq9Ko6mRkyaurOMC_-1" value="&lt;h1&gt;&lt;font style=&quot;font-size: 16px;&quot;&gt;SpringCloudCommons NamedContextFactory 原理&lt;/font&gt;&lt;/h1&gt;&lt;p&gt;&lt;br&gt;&lt;/p&gt;" style="text;html=1;strokeColor=none;fillColor=none;spacing=5;spacingTop=-20;whiteSpace=wrap;overflow=hidden;rounded=0;" vertex="1" parent="1">
          <mxGeometry x="40" y="20" width="420" height="120" as="geometry" />
        </mxCell>
        <mxCell id="RcNMq9Ko6mRkyaurOMC_-4" value="" style="edgeStyle=orthogonalEdgeStyle;rounded=0;orthogonalLoop=1;jettySize=auto;html=1;fontSize=10;" edge="1" parent="1" source="RcNMq9Ko6mRkyaurOMC_-2" target="RcNMq9Ko6mRkyaurOMC_-3">
          <mxGeometry relative="1" as="geometry" />
        </mxCell>
        <mxCell id="RcNMq9Ko6mRkyaurOMC_-2" value="NamedContextFactoryTests#&lt;br style=&quot;font-size: 10px;&quot;&gt;testChildContexts()" style="rounded=1;whiteSpace=wrap;html=1;fontSize=10;" vertex="1" parent="1">
          <mxGeometry x="40" y="160" width="200" height="60" as="geometry" />
        </mxCell>
        <mxCell id="RcNMq9Ko6mRkyaurOMC_-6" value="" style="edgeStyle=orthogonalEdgeStyle;rounded=0;orthogonalLoop=1;jettySize=auto;html=1;fontSize=10;" edge="1" parent="1" source="RcNMq9Ko6mRkyaurOMC_-3" target="RcNMq9Ko6mRkyaurOMC_-5">
          <mxGeometry relative="1" as="geometry" />
        </mxCell>
        <mxCell id="RcNMq9Ko6mRkyaurOMC_-3" value="&lt;font style=&quot;font-size: 10px;&quot;&gt;AnnotationConfigApplicationContext parent = new AnnotationConfigApplicationContext();&lt;/font&gt;" style="rounded=1;whiteSpace=wrap;html=1;fontSize=10;" vertex="1" parent="1">
          <mxGeometry x="280" y="160" width="200" height="60" as="geometry" />
        </mxCell>
        <mxCell id="RcNMq9Ko6mRkyaurOMC_-8" value="" style="edgeStyle=orthogonalEdgeStyle;rounded=0;orthogonalLoop=1;jettySize=auto;html=1;fontSize=10;" edge="1" parent="1" source="RcNMq9Ko6mRkyaurOMC_-5" target="RcNMq9Ko6mRkyaurOMC_-7">
          <mxGeometry relative="1" as="geometry" />
        </mxCell>
        <mxCell id="RcNMq9Ko6mRkyaurOMC_-5" value="&lt;div style=&quot;font-size: 10px;&quot;&gt;&lt;font style=&quot;font-size: 10px;&quot;&gt;parent.register(BaseConfig.class);&lt;/font&gt;&lt;/div&gt;&lt;div style=&quot;font-size: 10px;&quot;&gt;&lt;font style=&quot;font-size: 10px;&quot;&gt;parent.refresh();&lt;/font&gt;&lt;/div&gt;" style="rounded=1;whiteSpace=wrap;html=1;fontSize=10;" vertex="1" parent="1">
          <mxGeometry x="280" y="240" width="200" height="60" as="geometry" />
        </mxCell>
        <mxCell id="RcNMq9Ko6mRkyaurOMC_-11" value="" style="edgeStyle=orthogonalEdgeStyle;rounded=0;orthogonalLoop=1;jettySize=auto;html=1;fontSize=10;" edge="1" parent="1" source="RcNMq9Ko6mRkyaurOMC_-7" target="RcNMq9Ko6mRkyaurOMC_-10">
          <mxGeometry relative="1" as="geometry" />
        </mxCell>
        <mxCell id="RcNMq9Ko6mRkyaurOMC_-7" value="&lt;font style=&quot;font-size: 10px;&quot;&gt;testChildContexts(parent);&lt;/font&gt;" style="rounded=1;whiteSpace=wrap;html=1;fontSize=10;" vertex="1" parent="1">
          <mxGeometry x="280" y="320" width="200" height="60" as="geometry" />
        </mxCell>
        <mxCell id="RcNMq9Ko6mRkyaurOMC_-9" value="&lt;font style=&quot;font-size: 10px;&quot;&gt;&lt;font color=&quot;#007fff&quot; style=&quot;font-size: 10px;&quot;&gt;前两步创建一个名为parent的应用上下文（Bean容器），注册一个BaseConfig 配置类，然后执行 refresh() 会扫描BaseConfig 中的BeanDefinition, 然后创建并初始化 Bean, 忘记处理流程的话，去看下&lt;br style=&quot;font-size: 10px;&quot;&gt;spring AnnotationConfigApplicationContext 源码分析流程图&lt;/font&gt;&lt;br style=&quot;font-size: 10px;&quot;&gt;&lt;/font&gt;" style="text;html=1;strokeColor=none;fillColor=none;align=left;verticalAlign=middle;whiteSpace=wrap;rounded=0;fontSize=10;" vertex="1" parent="1">
          <mxGeometry x="490" y="240" width="310" height="60" as="geometry" />
        </mxCell>
        <mxCell id="RcNMq9Ko6mRkyaurOMC_-13" value="" style="edgeStyle=orthogonalEdgeStyle;rounded=0;orthogonalLoop=1;jettySize=auto;html=1;" edge="1" parent="1" source="RcNMq9Ko6mRkyaurOMC_-10" target="RcNMq9Ko6mRkyaurOMC_-12">
          <mxGeometry relative="1" as="geometry" />
        </mxCell>
        <mxCell id="RcNMq9Ko6mRkyaurOMC_-17" value="" style="edgeStyle=orthogonalEdgeStyle;rounded=0;orthogonalLoop=1;jettySize=auto;html=1;" edge="1" parent="1" source="RcNMq9Ko6mRkyaurOMC_-10" target="RcNMq9Ko6mRkyaurOMC_-16">
          <mxGeometry relative="1" as="geometry" />
        </mxCell>
        <mxCell id="RcNMq9Ko6mRkyaurOMC_-10" value="&lt;font style=&quot;font-size: 10px;&quot;&gt;TestClientFactory &lt;b&gt;factory&lt;/b&gt; = new TestClientFactory();&lt;br style=&quot;font-size: 10px;&quot;&gt;&lt;font color=&quot;#007fff&quot;&gt;此类继承 NamedContextFactory&amp;lt;TestSpec&amp;gt;&lt;/font&gt;&lt;br style=&quot;font-size: 10px;&quot;&gt;&lt;/font&gt;" style="rounded=1;whiteSpace=wrap;html=1;fontSize=10;fillColor=#dae8fc;strokeColor=#6c8ebf;" vertex="1" parent="1">
          <mxGeometry x="520" y="320" width="200" height="60" as="geometry" />
        </mxCell>
        <mxCell id="RcNMq9Ko6mRkyaurOMC_-12" value="&lt;font style=&quot;&quot;&gt;super(TestSpec.class, &quot;testfactory&quot;, &quot;test.client.name&quot;);&lt;br style=&quot;font-size: 10px;&quot;&gt;&lt;/font&gt;" style="rounded=1;whiteSpace=wrap;html=1;fontSize=10;" vertex="1" parent="1">
          <mxGeometry x="760" y="320" width="200" height="60" as="geometry" />
        </mxCell>
        <mxCell id="RcNMq9Ko6mRkyaurOMC_-14" value="&lt;div style=&quot;text-align: center; font-size: 10px;&quot;&gt;&lt;font style=&quot;font-size: 10px;&quot;&gt;&lt;font style=&quot;font-size: 10px;&quot; color=&quot;#000000&quot;&gt;&lt;b&gt;NamedContextFactory&lt;/b&gt;&amp;lt;C extends NamedContextFactory.Specification&amp;gt;&lt;/font&gt;&lt;br&gt;&lt;/font&gt;&lt;/div&gt;&lt;div style=&quot;text-align: center; font-size: 10px;&quot;&gt;&lt;font style=&quot;font-size: 10px;&quot;&gt;&lt;font style=&quot;font-size: 10px;&quot; color=&quot;#000000&quot;&gt;implements DisposableBean, ApplicationContextAware&lt;br&gt;&lt;/font&gt;&lt;/font&gt;&lt;/div&gt;&lt;hr style=&quot;font-size: 10px;&quot; size=&quot;1&quot;&gt;&lt;font style=&quot;font-size: 10px;&quot;&gt;&lt;span style=&quot;background-color: initial;&quot;&gt;&lt;div style=&quot;font-size: 10px;&quot;&gt;&lt;br&gt;&lt;/div&gt;&lt;div style=&quot;font-size: 10px;&quot;&gt;//属性源的名称&lt;/div&gt;&lt;div style=&quot;font-size: 10px;&quot;&gt;&lt;font color=&quot;#000000&quot;&gt;private final String propertySourceName;&lt;/font&gt;&lt;/div&gt;&lt;div style=&quot;font-size: 10px;&quot;&gt;//属性名&lt;/div&gt;&lt;div style=&quot;font-size: 10px;&quot;&gt;&lt;font color=&quot;#000000&quot;&gt;private final String propertyName;&lt;/font&gt;&lt;/div&gt;&lt;div style=&quot;font-size: 10px;&quot;&gt;// 配置组名 -&amp;gt; 加载配置类的子应用上下文 Map&lt;br&gt;&lt;/div&gt;&lt;div style=&quot;font-size: 10px;&quot;&gt;&lt;font color=&quot;#000000&quot;&gt;private Map&amp;lt;String, AnnotationConfigApplicationContext&amp;gt; &lt;b&gt;contexts&lt;/b&gt; = new &lt;b&gt;ConcurrentHashMap&lt;/b&gt;&amp;lt;&amp;gt;();&lt;/font&gt;&lt;/div&gt;&lt;div style=&quot;font-size: 10px;&quot;&gt;// 配置组名 -&amp;gt; 配置类数组 的 Map, 即&lt;b&gt;多组配置类的容器&lt;/b&gt;&lt;/div&gt;&lt;div style=&quot;font-size: 10px;&quot;&gt;&lt;font color=&quot;#000000&quot;&gt;private Map&amp;lt;String, C&amp;gt; &lt;b&gt;configurations&lt;/b&gt; = new ConcurrentHashMap&amp;lt;&amp;gt;();&lt;/font&gt;&lt;/div&gt;&lt;div style=&quot;font-size: 10px;&quot;&gt;// 父应用上下文&lt;/div&gt;&lt;div style=&quot;font-size: 10px;&quot;&gt;&lt;font color=&quot;#000000&quot;&gt;private ApplicationContext &lt;b&gt;parent&lt;/b&gt;;&lt;/font&gt;&lt;/div&gt;&lt;span style=&quot;&quot;&gt;//&amp;nbsp;&lt;/span&gt;NamedContextFactory.Specification 类型， Specification是带有&lt;b&gt;名称&lt;/b&gt;和&lt;b&gt;配置&lt;/b&gt;的规范&lt;div style=&quot;font-size: 10px;&quot;&gt;&lt;font color=&quot;#000000&quot;&gt;private Class&amp;lt;?&amp;gt; defaultConfigType;&lt;/font&gt;&lt;/div&gt;&lt;/span&gt;&lt;/font&gt;" style="verticalAlign=top;align=left;overflow=fill;fontSize=12;fontFamily=Helvetica;html=1;fontColor=#007FFF;" vertex="1" parent="1">
          <mxGeometry x="-520" y="160" width="480" height="200" as="geometry" />
        </mxCell>
        <mxCell id="RcNMq9Ko6mRkyaurOMC_-15" value="&lt;div style=&quot;text-align: center;&quot;&gt;&lt;font style=&quot;font-size: 10px;&quot; color=&quot;#000000&quot;&gt;TestSpec&lt;/font&gt;&lt;br&gt;&lt;/div&gt;&lt;hr style=&quot;font-size: 10px;&quot; size=&quot;1&quot;&gt;&lt;font style=&quot;font-size: 10px;&quot;&gt;&lt;span style=&quot;background-color: initial;&quot;&gt;&lt;div style=&quot;font-size: 10px;&quot;&gt;单元测试中定义的一个简单规范，确实是带有名称(配置名)和配置(一组配置类)的规范&lt;/div&gt;&lt;div style=&quot;font-size: 10px;&quot;&gt;&lt;br&gt;&lt;/div&gt;&lt;div style=&quot;font-size: 10px;&quot;&gt;//从代码中可以看出name其实是下面一组配置类的名字&lt;/div&gt;&lt;div style=&quot;font-size: 10px;&quot;&gt;&lt;div&gt;&lt;font color=&quot;#000000&quot;&gt;private String name;&lt;/font&gt;&lt;/div&gt;&lt;div&gt;//一组配置类&lt;/div&gt;&lt;div&gt;&lt;font color=&quot;#000000&quot;&gt;private Class&amp;lt;?&amp;gt;[] configuration;&lt;/font&gt;&lt;/div&gt;&lt;/div&gt;&lt;/span&gt;&lt;/font&gt;" style="verticalAlign=top;align=left;overflow=fill;fontSize=12;fontFamily=Helvetica;html=1;fontColor=#007FFF;" vertex="1" parent="1">
          <mxGeometry x="-520" y="400" width="480" height="100" as="geometry" />
        </mxCell>
        <mxCell id="RcNMq9Ko6mRkyaurOMC_-19" value="" style="edgeStyle=orthogonalEdgeStyle;rounded=0;orthogonalLoop=1;jettySize=auto;html=1;" edge="1" parent="1" source="RcNMq9Ko6mRkyaurOMC_-16" target="RcNMq9Ko6mRkyaurOMC_-18">
          <mxGeometry relative="1" as="geometry" />
        </mxCell>
        <mxCell id="RcNMq9Ko6mRkyaurOMC_-16" value="&lt;font style=&quot;&quot;&gt;factory.setApplicationContext(parent);&lt;br style=&quot;font-size: 10px;&quot;&gt;&lt;/font&gt;" style="rounded=1;whiteSpace=wrap;html=1;fontSize=10;" vertex="1" parent="1">
          <mxGeometry x="520" y="400" width="200" height="60" as="geometry" />
        </mxCell>
        <mxCell id="RcNMq9Ko6mRkyaurOMC_-21" value="" style="edgeStyle=orthogonalEdgeStyle;rounded=0;orthogonalLoop=1;jettySize=auto;html=1;" edge="1" parent="1" source="RcNMq9Ko6mRkyaurOMC_-18" target="RcNMq9Ko6mRkyaurOMC_-20">
          <mxGeometry relative="1" as="geometry" />
        </mxCell>
        <mxCell id="RcNMq9Ko6mRkyaurOMC_-18" value="&lt;font style=&quot;&quot;&gt;factory.&lt;b&gt;setConfigurations&lt;/b&gt;(Arrays.asList(&lt;br&gt;getSpec(&quot;foo&quot;, FooConfig.class), getSpec(&quot;bar&quot;, BarConfig.class)));&lt;br&gt;&lt;font color=&quot;#007fff&quot;&gt;定义了两组规范，或者说是两组配置类，并赋值到 NamedContextFactory&lt;/font&gt;&lt;br style=&quot;font-size: 10px;&quot;&gt;&lt;/font&gt;" style="rounded=1;whiteSpace=wrap;html=1;fontSize=10;fillColor=#dae8fc;strokeColor=#6c8ebf;" vertex="1" parent="1">
          <mxGeometry x="520" y="480" width="200" height="60" as="geometry" />
        </mxCell>
        <mxCell id="RcNMq9Ko6mRkyaurOMC_-23" value="" style="edgeStyle=orthogonalEdgeStyle;rounded=0;orthogonalLoop=1;jettySize=auto;html=1;" edge="1" parent="1" source="RcNMq9Ko6mRkyaurOMC_-20" target="RcNMq9Ko6mRkyaurOMC_-22">
          <mxGeometry relative="1" as="geometry" />
        </mxCell>
        <mxCell id="RcNMq9Ko6mRkyaurOMC_-41" value="" style="edgeStyle=orthogonalEdgeStyle;rounded=0;orthogonalLoop=1;jettySize=auto;html=1;" edge="1" parent="1" source="RcNMq9Ko6mRkyaurOMC_-20" target="RcNMq9Ko6mRkyaurOMC_-40">
          <mxGeometry relative="1" as="geometry" />
        </mxCell>
        <mxCell id="RcNMq9Ko6mRkyaurOMC_-20" value="&lt;font style=&quot;&quot;&gt;Foo foo = factory.&lt;b&gt;getInstance&lt;/b&gt;(&quot;foo&quot;, Foo.class);&lt;br&gt;&lt;font color=&quot;#007fff&quot;&gt;就是从以foo为key的子应用上下文中获取Foo类型的Bean&lt;/font&gt;&lt;br style=&quot;font-size: 10px;&quot;&gt;&lt;/font&gt;" style="rounded=1;whiteSpace=wrap;html=1;fontSize=10;fillColor=#dae8fc;strokeColor=#6c8ebf;" vertex="1" parent="1">
          <mxGeometry x="520" y="560" width="200" height="60" as="geometry" />
        </mxCell>
        <mxCell id="RcNMq9Ko6mRkyaurOMC_-27" value="" style="edgeStyle=orthogonalEdgeStyle;rounded=0;orthogonalLoop=1;jettySize=auto;html=1;" edge="1" parent="1" source="RcNMq9Ko6mRkyaurOMC_-22" target="RcNMq9Ko6mRkyaurOMC_-26">
          <mxGeometry relative="1" as="geometry" />
        </mxCell>
        <mxCell id="RcNMq9Ko6mRkyaurOMC_-39" value="" style="edgeStyle=orthogonalEdgeStyle;rounded=0;orthogonalLoop=1;jettySize=auto;html=1;" edge="1" parent="1" source="RcNMq9Ko6mRkyaurOMC_-22" target="RcNMq9Ko6mRkyaurOMC_-38">
          <mxGeometry relative="1" as="geometry" />
        </mxCell>
        <mxCell id="RcNMq9Ko6mRkyaurOMC_-22" value="&lt;font style=&quot;&quot;&gt;AnnotationConfigApplicationContext context = getContext(name);&lt;br&gt;&lt;font style=&quot;font-size: 9px;&quot; color=&quot;#007fff&quot;&gt;DCL同步下，判断contexts中是否存在此name的应用上下文，不存在则创建存在则返回&lt;/font&gt;&lt;br style=&quot;font-size: 10px;&quot;&gt;&lt;/font&gt;" style="rounded=1;whiteSpace=wrap;html=1;fontSize=10;fillColor=#dae8fc;strokeColor=#6c8ebf;" vertex="1" parent="1">
          <mxGeometry x="760" y="560" width="200" height="60" as="geometry" />
        </mxCell>
        <mxCell id="RcNMq9Ko6mRkyaurOMC_-29" value="" style="edgeStyle=orthogonalEdgeStyle;rounded=0;orthogonalLoop=1;jettySize=auto;html=1;" edge="1" parent="1" source="RcNMq9Ko6mRkyaurOMC_-26" target="RcNMq9Ko6mRkyaurOMC_-28">
          <mxGeometry relative="1" as="geometry" />
        </mxCell>
        <mxCell id="RcNMq9Ko6mRkyaurOMC_-26" value="&lt;font style=&quot;&quot;&gt;this.contexts.put(name, &lt;b&gt;createContext&lt;/b&gt;(name));&lt;br&gt;&lt;font size=&quot;1&quot; color=&quot;#007fff&quot;&gt;不存在的情况下创建应用上下文并注册name对应配置组所有配置到新建的应用上下文&lt;/font&gt;&lt;br style=&quot;font-size: 10px;&quot;&gt;&lt;/font&gt;" style="rounded=1;whiteSpace=wrap;html=1;fontSize=10;" vertex="1" parent="1">
          <mxGeometry x="1000" y="560" width="200" height="60" as="geometry" />
        </mxCell>
        <mxCell id="RcNMq9Ko6mRkyaurOMC_-31" value="" style="edgeStyle=orthogonalEdgeStyle;rounded=0;orthogonalLoop=1;jettySize=auto;html=1;" edge="1" parent="1" source="RcNMq9Ko6mRkyaurOMC_-28" target="RcNMq9Ko6mRkyaurOMC_-30">
          <mxGeometry relative="1" as="geometry" />
        </mxCell>
        <mxCell id="RcNMq9Ko6mRkyaurOMC_-28" value="&lt;font style=&quot;&quot;&gt;context = new AnnotationConfigApplicationContext(...);&lt;br style=&quot;font-size: 10px;&quot;&gt;&lt;/font&gt;" style="rounded=1;whiteSpace=wrap;html=1;fontSize=10;fillColor=#dae8fc;strokeColor=#6c8ebf;" vertex="1" parent="1">
          <mxGeometry x="1240.5" y="560" width="200" height="60" as="geometry" />
        </mxCell>
        <mxCell id="RcNMq9Ko6mRkyaurOMC_-33" value="" style="edgeStyle=orthogonalEdgeStyle;rounded=0;orthogonalLoop=1;jettySize=auto;html=1;" edge="1" parent="1" source="RcNMq9Ko6mRkyaurOMC_-30" target="RcNMq9Ko6mRkyaurOMC_-32">
          <mxGeometry relative="1" as="geometry" />
        </mxCell>
        <mxCell id="RcNMq9Ko6mRkyaurOMC_-30" value="&lt;font style=&quot;&quot;&gt;context.&lt;b&gt;register&lt;/b&gt;(configuration);&lt;br&gt;&lt;font color=&quot;#007fff&quot;&gt;注册name对应配置组所有配置以及&lt;br&gt;命名以&quot;default.&quot;开头的配置组的所有配置&lt;/font&gt;&lt;br style=&quot;font-size: 10px;&quot;&gt;&lt;/font&gt;" style="rounded=1;whiteSpace=wrap;html=1;fontSize=10;fillColor=#dae8fc;strokeColor=#6c8ebf;" vertex="1" parent="1">
          <mxGeometry x="1241" y="640" width="200" height="60" as="geometry" />
        </mxCell>
        <mxCell id="RcNMq9Ko6mRkyaurOMC_-35" value="" style="edgeStyle=orthogonalEdgeStyle;rounded=0;orthogonalLoop=1;jettySize=auto;html=1;" edge="1" parent="1" source="RcNMq9Ko6mRkyaurOMC_-32" target="RcNMq9Ko6mRkyaurOMC_-34">
          <mxGeometry relative="1" as="geometry" />
        </mxCell>
        <mxCell id="RcNMq9Ko6mRkyaurOMC_-32" value="&lt;font style=&quot;&quot;&gt;context.&lt;b&gt;register&lt;/b&gt;(&lt;br&gt;PropertyPlaceholderAutoConfiguration.class, this.defaultConfigType);&lt;br style=&quot;font-size: 10px;&quot;&gt;&lt;/font&gt;" style="rounded=1;whiteSpace=wrap;html=1;fontSize=10;fillColor=#dae8fc;strokeColor=#6c8ebf;" vertex="1" parent="1">
          <mxGeometry x="1241" y="720" width="200" height="60" as="geometry" />
        </mxCell>
        <mxCell id="RcNMq9Ko6mRkyaurOMC_-37" value="" style="edgeStyle=orthogonalEdgeStyle;rounded=0;orthogonalLoop=1;jettySize=auto;html=1;" edge="1" parent="1" source="RcNMq9Ko6mRkyaurOMC_-34" target="RcNMq9Ko6mRkyaurOMC_-36">
          <mxGeometry relative="1" as="geometry" />
        </mxCell>
        <mxCell id="RcNMq9Ko6mRkyaurOMC_-34" value="&lt;font style=&quot;&quot;&gt;&lt;div&gt;context.getEnvironment()&lt;span style=&quot;background-color: initial;&quot;&gt;.&lt;b&gt;getPropertySources&lt;/b&gt;()&lt;/span&gt;&lt;/div&gt;&lt;div&gt;&lt;span style=&quot;background-color: initial;&quot;&gt;.addFirst(new MapPropertySource(&lt;/span&gt;&lt;/div&gt;&lt;div&gt;&lt;span style=&quot;background-color: initial;&quot;&gt;this.propertySourceName,&amp;nbsp;&lt;/span&gt;&lt;/div&gt;&lt;div&gt;&lt;span style=&quot;background-color: initial;&quot;&gt;Collections&amp;lt;String,Object&amp;gt;singletonMap(&lt;/span&gt;&lt;/div&gt;&lt;div&gt;&lt;span style=&quot;background-color: initial;&quot;&gt;this.propertyName, name)));&lt;/span&gt;&lt;/div&gt;&lt;/font&gt;" style="rounded=1;whiteSpace=wrap;html=1;fontSize=10;fillColor=#dae8fc;strokeColor=#6c8ebf;align=left;" vertex="1" parent="1">
          <mxGeometry x="1220.5" y="800" width="240" height="60" as="geometry" />
        </mxCell>
        <mxCell id="RcNMq9Ko6mRkyaurOMC_-36" value="&lt;font style=&quot;&quot;&gt;&lt;div&gt;context.setParent(this.parent);&lt;/div&gt;&lt;div&gt;&lt;div&gt;context.&lt;b&gt;setDisplayName&lt;/b&gt;(&lt;/div&gt;&lt;div&gt;generateDisplayName(name));&lt;/div&gt;&lt;div&gt;context.&lt;b&gt;refresh&lt;/b&gt;();&lt;/div&gt;&lt;/div&gt;&lt;div&gt;return context;&lt;br&gt;&lt;/div&gt;&lt;/font&gt;" style="rounded=1;whiteSpace=wrap;html=1;fontSize=10;fillColor=#dae8fc;strokeColor=#6c8ebf;" vertex="1" parent="1">
          <mxGeometry x="1241" y="880" width="200" height="60" as="geometry" />
        </mxCell>
        <mxCell id="RcNMq9Ko6mRkyaurOMC_-38" value="&lt;font style=&quot;&quot;&gt;return context.getBean(type);&lt;br style=&quot;font-size: 10px;&quot;&gt;&lt;/font&gt;" style="rounded=1;whiteSpace=wrap;html=1;fontSize=10;" vertex="1" parent="1">
          <mxGeometry x="760" y="640" width="200" height="60" as="geometry" />
        </mxCell>
        <mxCell id="RcNMq9Ko6mRkyaurOMC_-43" value="" style="edgeStyle=orthogonalEdgeStyle;rounded=0;orthogonalLoop=1;jettySize=auto;html=1;" edge="1" parent="1" source="RcNMq9Ko6mRkyaurOMC_-40" target="RcNMq9Ko6mRkyaurOMC_-42">
          <mxGeometry relative="1" as="geometry" />
        </mxCell>
        <mxCell id="RcNMq9Ko6mRkyaurOMC_-40" value="&lt;font style=&quot;&quot;&gt;Object fooContainerFoo = factory.&lt;b&gt;getInstance&lt;/b&gt;(&quot;foo&quot;, Container.class, Foo.class);&lt;br&gt;&lt;font color=&quot;#007fff&quot;&gt;从以foo为key的子应用上下文中获取泛型类为Foo Container类型的Bean&lt;/font&gt;&lt;br style=&quot;font-size: 10px;&quot;&gt;&lt;/font&gt;" style="rounded=1;whiteSpace=wrap;html=1;fontSize=10;fillColor=#dae8fc;strokeColor=#6c8ebf;" vertex="1" parent="1">
          <mxGeometry x="520" y="720" width="200" height="60" as="geometry" />
        </mxCell>
        <mxCell id="RcNMq9Ko6mRkyaurOMC_-42" value="&lt;font style=&quot;&quot;&gt;AnnotationConfigApplicationContext fooContext = factory.getContext(&quot;foo&quot;);&lt;br style=&quot;font-size: 10px;&quot;&gt;&lt;/font&gt;" style="rounded=1;whiteSpace=wrap;html=1;fontSize=10;fillColor=#dae8fc;strokeColor=#6c8ebf;" vertex="1" parent="1">
          <mxGeometry x="520" y="800" width="200" height="60" as="geometry" />
        </mxCell>
        <mxCell id="RcNMq9Ko6mRkyaurOMC_-45" value="&lt;font color=&quot;#007fff&quot;&gt;创建并初始化Bean&lt;/font&gt;" style="text;html=1;align=center;verticalAlign=middle;resizable=0;points=[];autosize=1;strokeColor=none;fillColor=none;" vertex="1" parent="1">
          <mxGeometry x="1120" y="895" width="120" height="30" as="geometry" />
        </mxCell>
      </root>
    </mxGraphModel>
  </diagram>
</mxfile>
